<?xml version="1.0" standalone="no"?>
<!DOCTYPE svg PUBLIC "-//W3C//DTD SVG 1.1//EN"
"http://www.w3.org/Graphics/SVG/1.1/DTD/svg11.dtd">

<svg width="304" height="229" view_box="0 0 304 229"
xmlns="http://www.w3.org/2000/svg"
xmlns:link="http://www.w3.org/1999/xlink">\n\n<desc>Généré par Mocodo 2.3.7 le Wed, 03 Mar 2021 05:10:07</desc>

<rect id="frame" x="0" y="0" width="304" height="229" fill="#f7f7f7" stroke="none" stroke-width="0"/>

<!-- Association ETUDIE -->
<line x1="46" y1="60" x2="46" y2="178" stroke="#9970ab" stroke-width="2"/>
<text x="51.0" y="128" fill="#1b7837" font-family="Verdana" font-size="12">1,N</text>
<line x1="142" y1="178" x2="46" y2="178" stroke="#9970ab" stroke-width="2"/>
<text x="82" y="195.0" fill="#1b7837" font-family="Verdana" font-size="12">0,N</text>
<g id="association-ETUDIE">
	<path d="M 63 153 a 14 14 90 0 1 14 14 V 178 h -62 V 167 a 14 14 90 0 1 14 -14" fill="#c2a5cf" stroke="#c2a5cf" stroke-width="0"/>
	<path d="M 77 178.0 v 11 a 14 14 90 0 1 -14 14 H 29 a 14 14 90 0 1 -14 -14 V 178.0 H 62" fill="#e7d4e8" stroke="#e7d4e8" stroke-width="0"/>
	<rect x="15" y="153" width="62" height="50" fill="none" rx="14" stroke="#9970ab" stroke-width="2"/>
	<line x1="15" y1="178" x2="77" y2="178" stroke="#9970ab" stroke-width="1"/>
	<text x="22" y="170.7" fill="#000000" font-family="Verdana" font-size="12">ETUDIE</text>
	<text x="22" y="195.8" fill="#000000" font-family="Verdana" font-size="12">note</text>
</g>

<!-- Association ENSEIGNE -->
<line x1="142" y1="178" x2="246" y2="178" stroke="#9970ab" stroke-width="2"/>
<text x="180" y="195.0" fill="#1b7837" font-family="Verdana" font-size="12">1,1</text>
<line x1="246" y1="60" x2="246" y2="178" stroke="#9970ab" stroke-width="2"/>
<text x="251.0" y="128" fill="#1b7837" font-family="Verdana" font-size="12">1,N</text>
<g id="association-ENSEIGNE">
	<path d="M 271 153 a 14 14 90 0 1 14 14 V 178 h -78 V 167 a 14 14 90 0 1 14 -14" fill="#c2a5cf" stroke="#c2a5cf" stroke-width="0"/>
	<path d="M 285 178.0 v 11 a 14 14 90 0 1 -14 14 H 221 a 14 14 90 0 1 -14 -14 V 178.0 H 78" fill="#e7d4e8" stroke="#e7d4e8" stroke-width="0"/>
	<rect x="207" y="153" width="78" height="50" fill="none" rx="14" stroke="#9970ab" stroke-width="2"/>
	<line x1="207" y1="178" x2="285" y2="178" stroke="#9970ab" stroke-width="1"/>
	<text x="214" y="170.7" fill="#000000" font-family="Verdana" font-size="12">ENSEIGNE</text>
</g>

<!-- Entity MATIERE -->
<g id="entity-MATIERE">
	<g id="frame-MATIERE">
		<rect x="109" y="136" width="66" height="25" fill="#a6dba0" stroke="#a6dba0" stroke-width="0"/>
		<rect x="109" y="161.0" width="66" height="59" fill="#d9f0d3" stroke="#d9f0d3" stroke-width="0"/>
		<rect x="109" y="136" width="66" height="84" fill="none" stroke="#5aae61" stroke-width="2"/>
		<line x1="109" y1="161" x2="175" y2="161" stroke="#5aae61" stroke-width="1"/>
	</g>
	<text x="114" y="153.7" fill="#000000" font-family="Verdana" font-size="12">MATIERE</text>
	<text x="114" y="178.8" fill="#000000" font-family="Verdana" font-size="12">code_m</text>
	<line x1="114" y1="181" x2="162" y2="181" stroke="#000000" stroke-width="1"/>
	<text x="114" y="195.8" fill="#000000" font-family="Verdana" font-size="12">nom_m</text>
	<text x="114" y="212.8" fill="#000000" font-family="Verdana" font-size="12">coeff</text>
</g>

<!-- Entity INTERVENANT -->
<g id="entity-INTERVENANT">
	<g id="frame-INTERVENANT">
		<rect x="197" y="9" width="98" height="25" fill="#a6dba0" stroke="#a6dba0" stroke-width="0"/>
		<rect x="197" y="34.0" width="98" height="77" fill="#d9f0d3" stroke="#d9f0d3" stroke-width="0"/>
		<rect x="197" y="9" width="98" height="102" fill="none" stroke="#5aae61" stroke-width="2"/>
		<line x1="197" y1="34" x2="295" y2="34" stroke="#5aae61" stroke-width="1"/>
	</g>
	<text x="202" y="26.7" fill="#000000" font-family="Verdana" font-size="12">INTERVENANT</text>
	<text x="202" y="51.7" fill="#000000" font-family="Verdana" font-size="12">code_i</text>
	<line x1="202" y1="54" x2="242" y2="54" stroke="#000000" stroke-width="1"/>
	<text x="202" y="68.8" fill="#000000" font-family="Verdana" font-size="12">nom_i</text>
	<text x="202" y="85.8" fill="#000000" font-family="Verdana" font-size="12">grade_i</text>
	<text x="202" y="102.8" fill="#000000" font-family="Verdana" font-size="12">anciennete</text>
</g>

<!-- Entity ETUDIANT -->
<g id="entity-ETUDIANT">
	<g id="frame-ETUDIANT">
		<rect x="9" y="9" width="74" height="25" fill="#a6dba0" stroke="#a6dba0" stroke-width="0"/>
		<rect x="9" y="34.0" width="74" height="77" fill="#d9f0d3" stroke="#d9f0d3" stroke-width="0"/>
		<rect x="9" y="9" width="74" height="102" fill="none" stroke="#5aae61" stroke-width="2"/>
		<line x1="9" y1="34" x2="83" y2="34" stroke="#5aae61" stroke-width="1"/>
	</g>
	<text x="14" y="26.7" fill="#000000" font-family="Verdana" font-size="12">ETUDIANT</text>
	<text x="14" y="51.7" fill="#000000" font-family="Verdana" font-size="12">code_e</text>
	<line x1="14" y1="54" x2="58" y2="54" stroke="#000000" stroke-width="1"/>
	<text x="14" y="68.8" fill="#000000" font-family="Verdana" font-size="12">nom_e</text>
	<text x="14" y="85.8" fill="#000000" font-family="Verdana" font-size="12">ddn_e</text>
	<text x="14" y="102.8" fill="#000000" font-family="Verdana" font-size="12">sexe_e</text>
</g>
</svg>